
<svg width="104" height="72" viewBox="0 0 104 72" fill="none" xmlns="http://www.w3.org/2000/svg">
<rect width="104" height="72" rx="32" fill="#D3D3D3"/>
<path d="M51.9987 19.3359C49.81 19.3359 47.6427 19.767 45.6206 20.6046C43.5985 21.4422 41.7612 22.6698 40.2136 24.2175C37.088 27.3431 35.332 31.5823 35.332 36.0026C35.332 43.3693 40.1154 49.6193 46.732 51.8359C47.5654 51.9693 47.832 51.4526 47.832 51.0026V48.1859C43.2154 49.1859 42.232 45.9526 42.232 45.9526C41.4654 44.0193 40.382 43.5026 40.382 43.5026C38.8654 42.4693 40.4987 42.5026 40.4987 42.5026C42.1654 42.6193 43.0487 44.2193 43.0487 44.2193C44.4987 46.7526 46.9487 46.0026 47.8987 45.6026C48.0487 44.5193 48.482 43.7859 48.9487 43.3693C45.2487 42.9526 41.3654 41.5193 41.3654 35.1693C41.3654 33.3193 41.9987 31.8359 43.082 30.6526C42.9154 30.2359 42.332 28.5026 43.2487 26.2526C43.2487 26.2526 44.6487 25.8026 47.832 27.9526C49.1487 27.5859 50.582 27.4026 51.9987 27.4026C53.4154 27.4026 54.8487 27.5859 56.1654 27.9526C59.3487 25.8026 60.7487 26.2526 60.7487 26.2526C61.6654 28.5026 61.082 30.2359 60.9154 30.6526C61.9987 31.8359 62.632 33.3193 62.632 35.1693C62.632 41.5359 58.732 42.9359 55.0154 43.3526C55.6154 43.8693 56.1654 44.8859 56.1654 46.4359V51.0026C56.1654 51.4526 56.432 51.9859 57.282 51.8359C63.8987 49.6026 68.6654 43.3693 68.6654 36.0026C68.6654 33.8139 68.2343 31.6466 67.3967 29.6245C66.5591 27.6025 65.3315 25.7651 63.7838 24.2175C62.2362 22.6698 60.3988 21.4422 58.3768 20.6046C56.3547 19.767 54.1874 19.3359 51.9987 19.3359Z" fill="black"/>
</svg>
