
<svg width="104" height="72" viewBox="0 0 104 72" fill="none" xmlns="http://www.w3.org/2000/svg">
<rect width="104" height="72" rx="32" fill="#0A66C2"/>
<path d="M63.6667 21C64.5507 21 65.3986 21.3512 66.0237 21.9763C66.6488 22.6014 67 23.4493 67 24.3333V47.6667C67 48.5507 66.6488 49.3986 66.0237 50.0237C65.3986 50.6488 64.5507 51 63.6667 51H40.3333C39.4493 51 38.6014 50.6488 37.9763 50.0237C37.3512 49.3986 37 48.5507 37 47.6667V24.3333C37 23.4493 37.3512 22.6014 37.9763 21.9763C38.6014 21.3512 39.4493 21 40.3333 21H63.6667ZM62.8333 46.8333V38C62.8333 36.559 62.2609 35.177 61.2419 34.1581C60.223 33.1391 58.841 32.5667 57.4 32.5667C55.9833 32.5667 54.3333 33.4333 53.5333 34.7333V32.8833H48.8833V46.8333H53.5333V38.6167C53.5333 37.3333 54.5667 36.2833 55.85 36.2833C56.4688 36.2833 57.0623 36.5292 57.4999 36.9668C57.9375 37.4043 58.1833 37.9978 58.1833 38.6167V46.8333H62.8333ZM43.4667 30.2667C44.2093 30.2667 44.9215 29.9717 45.4466 29.4466C45.9717 28.9215 46.2667 28.2093 46.2667 27.4667C46.2667 25.9167 45.0167 24.65 43.4667 24.65C42.7196 24.65 42.0032 24.9468 41.475 25.475C40.9468 26.0032 40.65 26.7196 40.65 27.4667C40.65 29.0167 41.9167 30.2667 43.4667 30.2667ZM45.7833 46.8333V32.8833H41.1667V46.8333H45.7833Z" fill="white"/>
</svg>
