<svg width="105" height="72" viewBox="0 0 105 72" fill="none" xmlns="http://www.w3.org/2000/svg">
<rect x="0.84375" width="104" height="72" rx="32" fill="white"/>
<g clip-path="url(#clip0_922_3769)">
<path d="M63.4688 16H42.2188C37.0411 16 32.8438 20.1973 32.8438 25.375V46.625C32.8438 51.8027 37.0411 56 42.2188 56H63.4688C68.6464 56 72.8438 51.8027 72.8438 46.625V25.375C72.8438 20.1973 68.6464 16 63.4688 16Z" fill="#F4F2ED"/>
<path d="M39.3494 47.7286H44.3209V35.6547L37.2188 30.3281V45.598C37.2188 46.7769 38.1741 47.7286 39.3494 47.7286Z" fill="#4285F4"/>
<path d="M61.3672 47.7288H66.3389C67.5178 47.7288 68.4695 46.7734 68.4695 45.5981V30.3281L61.3672 35.6548" fill="#34A853"/>
<path d="M61.3672 26.4181V35.6511L68.4695 30.3245V27.4832C68.4695 24.8484 65.4617 23.3462 63.3559 24.9265" fill="#FBBC04"/>
<path d="M44.3203 35.6472V26.4144L52.843 32.8061L61.3656 26.4141V35.647L52.843 42.0392" fill="#EA4335"/>
<path d="M37.2188 27.4832V30.3242L44.3209 35.6509V26.4181L42.3323 24.9265C40.223 23.3462 37.2188 24.8484 37.2188 27.4832Z" fill="#C5221F"/>
</g>
<defs>
<clipPath id="clip0_922_3769">
<rect width="40" height="40" fill="white" transform="translate(32.8438 16)"/>
</clipPath>
</defs>
</svg>
